<svg width="34" height="34" viewBox="0 0 34 34" fill="none" xmlns="http://www.w3.org/2000/svg">
<g clip-path="url(#clip0_22_106)">
<path d="M28.9 0H5.1C2.28335 0 0 2.28335 0 5.1V28.9C0 31.7167 2.28335 34 5.1 34H28.9C31.7167 34 34 31.7167 34 28.9V5.1C34 2.28335 31.7167 0 28.9 0Z" fill="#4175FA"/>
<path d="M22.9845 14.0688C18.1119 14.0688 18.1056 18.9231 18.1056 18.948C18.1056 18.948 17.7718 23.8084 22.9845 23.8084C22.9845 23.8084 27.3318 24.0555 27.3318 20.4258H25.0996C25.0996 20.4258 25.1735 21.7923 23.0588 21.7923C23.0588 21.7923 20.8265 21.9408 20.8265 19.5847H27.4061C27.4061 19.5847 28.1297 14.0688 22.9845 14.0688ZM20.8015 17.8841C20.8015 17.8841 21.0737 15.9299 23.0341 15.9299C25.0006 15.9299 24.9696 17.8841 24.9696 17.8841H20.8015ZM15.2243 16.6352C15.2243 16.6352 17.1598 16.4929 17.1598 14.2173C17.1598 11.948 15.5768 10.8347 13.567 10.8347H6.95618V23.5422H13.5664C13.5664 23.5422 17.6046 23.6661 17.6046 19.7889C17.6049 19.7889 17.7781 16.6352 15.2243 16.6352ZM9.86895 13.0917H13.5667C13.5667 13.0917 14.4635 13.0917 14.4635 14.4149C14.4635 15.7381 13.9378 15.9299 13.3379 15.9299H9.86895V13.0917ZM13.3814 21.2855H9.86895V17.8843H13.5667C13.5667 17.8843 14.9089 17.872 14.9025 19.6343C14.9025 21.1187 13.9071 21.2732 13.3814 21.2855ZM20.2512 11.5836V13.1482H25.4952V11.5836H20.2512Z" fill="white"/>
</g>
<defs>
<clipPath id="clip0_22_106">
<rect width="34" height="34" fill="white"/>
</clipPath>
</defs>
</svg>
