<svg width="57" height="57" viewBox="0 0 57 57" fill="none" xmlns="http://www.w3.org/2000/svg">
<g clip-path="url(#clip0_1_33)">
<path d="M56.143 21.7747C54.9609 21.0664 52.8354 16.9303 52.3624 16.4582C51.8894 15.9844 49.1715 14.9207 49.1715 14.9207L47.6357 10.0764C44.6809 10.431 42.91 15.1568 42.7915 15.5113C42.7915 15.5113 42.4953 23.7234 29.3798 20.5334C19.9796 18.2467 14.326 16.0349 9.57767 20.4933C9.28064 19.9836 9.07769 19.4653 8.92952 18.9061C8.66478 17.8972 8.60466 16.7396 8.60555 15.4206C8.60555 14.7742 8.61769 14.0931 8.61858 13.3789C8.61769 11.8831 8.56369 10.2341 8.16814 8.47875C7.77627 6.72266 7.02881 4.86982 5.71603 3.02389C5.14982 2.22589 4.04344 2.03775 3.24466 2.60485C2.44677 3.17196 2.25851 4.27823 2.82562 5.07623C3.86141 6.53963 4.40225 7.9004 4.71063 9.25671C5.01555 10.6112 5.07478 11.9728 5.074 13.3789C5.074 14.0495 5.06086 14.7299 5.06086 15.4206C5.06265 16.8285 5.10963 18.2928 5.49816 19.798C5.80387 20.9931 6.35784 22.2005 7.22464 23.3278C3.5547 29.1076 5.57052 35.2447 5.57052 35.2447L1.77501 41.2833C1.70621 41.3921 1.66001 41.5133 1.63652 41.6386L0.0162525 50.5511C-0.0551089 50.9431 0.112217 51.3393 0.441415 51.5624L5.00353 54.6532C5.10105 54.7202 5.22218 54.7395 5.3354 54.7081C5.44962 54.6776 5.5428 54.5974 5.59234 54.4911L6.51926 52.5067C6.58806 52.3577 6.56023 52.1818 6.44868 52.0616L5.25435 50.7871C5.01143 50.5284 4.92337 50.1599 5.02268 49.8184L7.00877 43.0238C7.07323 42.8069 7.20738 42.6179 7.39118 42.4872L10.0612 40.5881C10.4235 40.3285 10.9139 40.3407 11.2642 40.6161C11.6144 40.8913 11.7416 41.3643 11.5769 41.7781L10.3992 44.7381C10.2633 45.0778 10.3233 45.4645 10.5551 45.7467L17.268 53.9143H22.302C22.5242 53.9143 22.7046 53.734 22.7046 53.5128V51.0074C22.7046 50.7852 22.5242 50.605 22.302 50.605H20.7097C20.3376 50.605 19.9962 50.3986 19.8211 50.0702L17.0953 45.5002C16.9124 45.1545 16.9473 44.7354 17.1825 44.4245L19.6259 41.1961C19.8158 40.9461 20.1121 40.7981 20.4266 40.7981H27.2395C27.5593 40.7981 27.8606 40.9513 28.0497 41.2101C28.2387 41.4688 28.2936 41.8016 28.1977 42.1073L26.0017 49.0275C25.932 49.2453 25.9389 49.4813 26.0217 49.6948L27.4304 53.3238H31.8024V52.3787L31.0795 50.1059C31.0116 49.8934 31.0168 49.6643 31.0943 49.4544L34.0412 41.4558C34.1876 41.0603 34.5638 40.7981 34.9846 40.7981H37.9917C38.2644 40.7981 38.5257 40.9096 38.7156 41.1072L47.0444 52.6147C47.0444 52.6147 51.298 52.6147 52.7162 52.6147C54.1343 52.6147 53.5856 49.7854 52.2441 49.6598C49.7029 49.4238 46.4546 42.3346 45.0365 39.8529C43.6182 37.372 47.7823 29.6888 50.9443 29.3376C54.1343 28.983 55.7886 27.6825 56.2617 25.9098C57.2066 24.847 57.3251 22.4837 56.143 21.7747Z" fill="#48CAE4"/>
</g>
<defs>
<clipPath id="clip0_1_33">
<rect width="57" height="57" fill="white"/>
</clipPath>
</defs>
</svg>
