<svg width="34" height="34" viewBox="0 0 34 34" fill="none" xmlns="http://www.w3.org/2000/svg">
<g clip-path="url(#clip0_22_104)">
<path fill-rule="evenodd" clip-rule="evenodd" d="M28.9733 28.9712H23.9307V21.0811C23.9307 19.1994 23.8988 16.779 21.3106 16.779C18.6873 16.779 18.2867 18.8296 18.2867 20.9461V28.9712H13.2494V12.7457H18.0837V14.9642H18.1528C18.8254 13.6882 20.4701 12.3431 22.9234 12.3431C28.0298 12.3431 28.9733 15.7027 28.9733 20.0727V28.9712ZM7.56394 10.5294C5.94362 10.5294 4.63781 9.21931 4.63781 7.60431C4.63781 5.99038 5.94362 4.68031 7.56394 4.68031C9.17681 4.68031 10.4869 5.99038 10.4869 7.60431C10.4869 9.21931 9.17681 10.5294 7.56394 10.5294ZM10.0863 28.9712H5.03837V12.7457H10.0863V28.9712ZM32.5837 0H1.41737C0.634312 0 0 0.634313 0 1.41631V32.5826C0 33.3657 0.634312 34 1.41737 34H32.5837C33.3657 34 34 33.3657 34 32.5826V1.41631C34 0.634313 33.3657 0 32.5837 0Z" fill="#0077B5"/>
</g>
<defs>
<clipPath id="clip0_22_104">
<rect width="34" height="34" fill="white"/>
</clipPath>
</defs>
</svg>
