<svg width="61" height="61" viewBox="0 0 61 61" fill="none" xmlns="http://www.w3.org/2000/svg">
<path d="M25.6477 30.4057L49.2158 21.9368V36.0172C47.8154 35.2117 46.1501 34.7446 44.3635 34.7446C39.3867 34.7446 35.3523 38.369 35.3523 42.8398C35.3523 47.3106 39.3867 50.935 44.3635 50.935C49.3404 50.935 53.375 47.3106 53.375 42.8398V19.0431C53.375 16.1965 53.375 13.8091 53.1521 11.907C53.1206 11.6382 53.0832 11.3709 53.042 11.1215C52.8273 9.82204 52.4478 8.60977 51.7153 7.59748C51.3488 7.0913 50.8943 6.63515 50.3281 6.24305C50.2218 6.16954 50.1115 6.09827 49.9974 6.02934L49.9745 6.01559C48.0136 4.84322 45.8092 4.92707 43.5382 5.44692C41.342 5.94969 38.6191 6.97352 35.2804 8.22898L29.4739 10.4121C27.909 11.0005 26.583 11.499 25.5422 12.0153C24.435 12.5647 23.4812 13.2126 22.7659 14.1781C22.0506 15.1437 21.7535 16.1842 21.6169 17.3139C21.4885 18.3757 21.4886 19.6669 21.4886 21.191V40.9989C20.088 40.1934 18.4229 39.7262 16.6364 39.7262C11.6595 39.7262 7.625 43.3507 7.625 47.8215C7.625 52.2923 11.6595 55.9167 16.6364 55.9167C21.6132 55.9167 25.6477 52.2923 25.6477 47.8215V30.4057Z" fill="#48CAE4"/>
</svg>
