<svg width="66" height="66" viewBox="0 0 66 66" fill="none" xmlns="http://www.w3.org/2000/svg">
<path d="M58.08 26.1242C57.9648 25.7588 57.7489 25.4334 57.4571 25.1853C57.1651 24.9372 56.8092 24.7765 56.43 24.7217L41.525 22.5492L34.8425 9.04671C34.6522 8.72765 34.3824 8.46343 34.0596 8.27995C33.7365 8.09647 33.3715 8 33 8C32.6285 8 32.2636 8.09647 31.9404 8.27995C31.6176 8.46343 31.3475 8.72765 31.1575 9.04671L24.475 22.5492L9.56997 24.7217C9.1908 24.7765 8.83482 24.9372 8.54293 25.1853C8.25105 25.4334 8.03512 25.7588 7.91997 26.1242C7.79705 26.4882 7.77827 26.8795 7.86574 27.2535C7.95319 27.6278 8.14341 27.9699 8.41497 28.2418L19.25 38.7468L16.6925 53.5968C16.6277 53.9791 16.6705 54.3718 16.8162 54.7312C16.9619 55.0906 17.2047 55.4025 17.5175 55.6318C17.8308 55.8549 18.2002 55.986 18.5841 56.0105C18.968 56.0347 19.3511 55.9511 19.69 55.7693L33 48.7568L46.3375 55.7693C46.6326 55.931 46.9634 56.0163 47.3 56.0168C47.7326 56.0116 48.1539 55.8777 48.51 55.6318C48.8227 55.4025 49.0655 55.0906 49.2113 54.7312C49.357 54.3718 49.3999 53.9791 49.335 53.5968L46.75 38.7468L57.5575 28.2418C57.8339 27.9729 58.0291 27.6319 58.1215 27.2576C58.2139 26.8833 58.1994 26.4906 58.08 26.1242Z" fill="#48CAE4"/>
</svg>
