<svg width="391" height="110" viewBox="0 0 391 110" fill="none" xmlns="http://www.w3.org/2000/svg">
<path d="M44.24 88.8C43.0667 88.8 42.08 88.3467 41.28 87.44C40.5333 86.5333 40.16 85.04 40.16 82.96C40.16 82.2667 40.24 81.52 40.4 80.72C40.56 79.8667 40.8533 79.0133 41.28 78.16C38.6133 71.5467 36.3733 65.12 34.56 58.88C32.7467 52.64 31.2 46.1067 29.92 39.28C28.2133 42.8 26.5867 46.4533 25.04 50.24C23.5467 53.9733 22.1333 57.6267 20.8 61.2C19.4667 64.7733 18.2667 68.1067 17.2 71.2C16.1333 74.2933 15.2 76.96 14.4 79.2C13.5467 81.8667 12.6933 83.6533 11.84 84.56C10.9867 85.52 10.1067 86 9.2 86C7.97333 86 7.04 85.7067 6.4 85.12C5.81333 84.5333 5.52 83.4933 5.52 82C5.52 80.88 5.81333 79.1467 6.4 76.8C6.98667 74.4533 7.78667 71.7333 8.8 68.64C9.86667 65.5467 11.0667 62.2933 12.4 58.88C13.7333 55.4667 15.1467 52.1333 16.64 48.88C18.1867 45.6267 19.7333 42.6933 21.28 40.08C22.8267 37.4133 24.2933 35.3067 25.68 33.76C27.12 32.16 28.4267 31.36 29.6 31.36C30.8267 31.36 31.8667 31.6 32.72 32.08C33.6267 32.56 34.6133 33.8133 35.68 35.84C36.3733 37.2267 37.1733 39.2533 38.08 41.92C38.9867 44.5333 39.8933 47.4933 40.8 50.8C41.7067 54.0533 42.5867 57.4133 43.44 60.88C44.2933 64.2933 45.04 67.4667 45.68 70.4C47.8133 60.5333 49.68 51.8933 51.28 44.48C52.88 37.0133 54.1067 31.1733 54.96 26.96C55.8667 22.7467 56.3467 20.5333 56.4 20.32C56.72 18.9333 57.0667 18.08 57.44 17.76C57.8133 17.44 58.3467 17.28 59.04 17.28C60 17.28 60.9333 17.68 61.84 18.48C62.8 19.2267 63.28 20.2667 63.28 21.6C63.28 22.24 63.12 23.7067 62.8 26C62.5333 28.2933 62.1067 31.1733 61.52 34.64C60.9867 38.0533 60.2933 41.8667 59.44 46.08C58.5867 50.24 57.6 54.5867 56.48 59.12C55.36 63.6 54.1067 68.0533 52.72 72.48C51.3867 76.8533 49.92 80.9867 48.32 84.88C47.7333 86.3733 47.04 87.3867 46.24 87.92C45.4933 88.5067 44.8267 88.8 44.24 88.8ZM86.6269 84.8C83.4802 84.8 81.0002 83.6 79.1869 81.2C77.3735 78.8 76.4669 75.68 76.4669 71.84C76.4669 70.4533 76.6535 68.9867 77.0269 67.44C77.4535 65.84 77.9869 64.4 78.6269 63.12C78.2535 62.7467 77.9602 62.24 77.7469 61.6C77.5335 60.9067 77.4269 60.0533 77.4269 59.04C77.4269 55.8933 77.9602 53.0133 79.0269 50.4C80.0935 47.7867 81.5069 45.52 83.2669 43.6C85.0269 41.6267 86.9735 40.1067 89.1069 39.04C91.2935 37.9733 93.5069 37.44 95.7469 37.44C99.4269 37.44 102.414 38.7733 104.707 41.44C107 44.0533 108.147 48.0533 108.147 53.44C108.147 56.2667 107.72 59.1467 106.867 62.08C106.067 65.0133 104.947 67.84 103.507 70.56C102.12 73.28 100.494 75.7067 98.6269 77.84C96.8135 79.9733 94.8669 81.68 92.7869 82.96C90.7602 84.1867 88.7069 84.8 86.6269 84.8ZM83.9069 60.4C84.2269 60.8267 84.3869 61.3867 84.3869 62.08C84.3869 62.88 84.2269 63.68 83.9069 64.48C83.6402 65.28 83.3469 66.3733 83.0269 67.76C82.7069 69.1467 82.5469 71.12 82.5469 73.68C82.5469 76.24 83.5602 77.52 85.5869 77.52C87.8269 77.52 89.9069 76.64 91.8269 74.88C93.7469 73.0667 95.4535 70.7467 96.9469 67.92C98.4402 65.0933 99.5869 62.08 100.387 58.88C101.24 55.6267 101.667 52.56 101.667 49.68C101.667 47.8133 101.32 46.5067 100.627 45.76C99.9335 44.96 98.6802 44.56 96.8669 44.56C95.0002 44.56 93.0535 45.2 91.0269 46.48C89.0535 47.7067 87.4002 49.3867 86.0669 51.52C84.7335 53.6533 84.0669 56.0533 84.0669 58.72C84.0669 59.3067 84.0135 59.8667 83.9069 60.4ZM113.874 58.4C112.434 58.2933 111.768 57.36 111.874 55.6C111.928 55.1733 112.221 54.6667 112.754 54.08C113.288 53.44 113.901 53.0933 114.594 53.04C116.248 52.88 118.274 52.64 120.674 52.32C123.128 51.9467 125.821 51.52 128.754 51.04C129.288 48.4267 129.928 45.68 130.674 42.8C131.421 39.92 132.248 37.12 133.154 34.4C134.061 31.6267 135.021 29.12 136.034 26.88C137.048 24.64 138.114 22.88 139.234 21.6C139.821 21.0133 140.354 20.6133 140.834 20.4C141.314 20.1333 141.741 20 142.114 20C142.861 20 143.448 20.32 143.874 20.96C144.354 21.6 144.594 22.32 144.594 23.12C144.594 23.5467 144.514 23.9733 144.354 24.4C143.288 27.3867 142.141 31.0667 140.914 35.44C139.688 39.8133 138.381 44.5867 136.994 49.76C141.901 48.96 146.808 48.1067 151.714 47.2C156.621 46.2933 160.834 45.4667 164.354 44.72C165.368 44.2933 166.141 44.3733 166.674 44.96C167.261 45.5467 167.554 46.1333 167.554 46.72C167.554 47.4667 167.341 48.0267 166.914 48.4C166.541 48.7733 166.141 49.0933 165.714 49.36L165.634 49.44C164.568 49.8667 162.968 50.3733 160.834 50.96C158.701 51.4933 156.248 52.08 153.474 52.72C150.701 53.3067 147.741 53.8933 144.594 54.48C141.501 55.0667 138.434 55.6 135.394 56.08C134.168 60.7733 132.914 65.6 131.634 70.56C130.408 75.4667 129.181 80.2933 127.954 85.04C127.421 86.96 126.808 88.16 126.114 88.64C125.474 89.1733 124.781 89.44 124.034 89.44C123.181 89.44 122.434 89.12 121.794 88.48C121.208 87.84 121.128 86.5333 121.554 84.56L127.394 57.28C124.194 57.76 121.368 58.1067 118.914 58.32C116.514 58.5333 114.834 58.56 113.874 58.4ZM190.776 49.52C190.776 51.2267 190.242 52.9067 189.176 54.56C188.109 56.16 186.696 57.7067 184.936 59.2C183.176 60.64 181.229 62 179.096 63.28C176.962 64.56 174.829 65.68 172.696 66.64C170.562 67.6 168.616 68.3733 166.856 68.96C166.429 71.04 166.216 72.88 166.216 74.48C166.216 75.4933 166.456 76.2133 166.936 76.64C167.416 77.0667 168.162 77.28 169.176 77.28C171.416 77.28 173.789 76.88 176.296 76.08C178.802 75.28 181.362 74.24 183.976 72.96C186.589 71.68 189.096 70.32 191.496 68.88C193.896 67.44 196.082 66.08 198.056 64.8C200.082 63.52 201.762 62.48 203.096 61.68C204.429 60.88 205.309 60.48 205.736 60.48C206.376 60.48 206.856 60.6933 207.176 61.12C207.549 61.4933 207.736 61.9467 207.736 62.48C207.736 62.9067 207.069 63.7333 205.736 64.96C204.456 66.1867 202.722 67.6267 200.536 69.28C198.349 70.88 195.896 72.5333 193.176 74.24C190.456 75.9467 187.629 77.5467 184.696 79.04C181.816 80.5333 179.016 81.7333 176.296 82.64C173.629 83.5467 171.229 84 169.096 84C166.322 84 164.162 82.96 162.616 80.88C161.069 78.8 160.296 75.5733 160.296 71.2C160.296 68.2667 160.669 65.3067 161.416 62.32C162.216 59.3333 163.282 56.48 164.616 53.76C166.002 50.9867 167.522 48.5333 169.176 46.4C170.882 44.2133 172.669 42.5067 174.536 41.28C176.402 40 178.216 39.36 179.976 39.36C183.336 39.36 185.976 40.2933 187.896 42.16C189.816 44.0267 190.776 46.48 190.776 49.52ZM168.536 62.8C170.189 61.7867 171.896 60.72 173.656 59.6C175.416 58.48 177.042 57.3333 178.536 56.16C180.029 54.9867 181.229 53.76 182.136 52.48C183.096 51.1467 183.576 49.7867 183.576 48.4C183.576 46.4267 182.509 45.44 180.376 45.44C179.042 45.44 177.629 46.2933 176.136 48C174.696 49.6533 173.309 51.8133 171.976 54.48C170.642 57.1467 169.496 59.92 168.536 62.8Z" fill="#6FFFE9"/>
<path d="M219 44.6821C230.856 57.6205 242.351 69.2684 253.401 84C265.415 59.8998 277.711 35.7158 298 9.52566L292.533 7C275.402 25.3249 262.092 42.671 250.527 63.2852C242.484 55.9781 229.487 45.6374 221.551 40.3247L219 44.6821Z" fill="#6FFFE9"/>
<path d="M316.56 86C314.16 86 312.027 85.28 310.16 83.84C308.347 82.3467 306.933 80.32 305.92 77.76C304.907 75.2 304.4 72.24 304.4 68.88C304.4 65.36 304.8 61.8133 305.6 58.24C306.4 54.6667 307.413 51.3867 308.64 48.4C309.867 45.4133 311.12 43.04 312.4 41.28C313.68 39.4667 314.827 38.56 315.84 38.56C316.587 38.56 317.2 38.8 317.68 39.28C318.16 39.76 318.4 40.4533 318.4 41.36C318.4 41.5733 318.187 42.32 317.76 43.6C317.333 44.8267 316.8 46.4267 316.16 48.4C315.52 50.32 314.88 52.4533 314.24 54.8C313.6 57.1467 313.067 59.5467 312.64 62C312.213 64.4533 312 66.7733 312 68.96C312 72.6933 312.347 75.3333 313.04 76.88C313.787 78.3733 314.96 79.12 316.56 79.12C320.453 79.12 324.08 78.1067 327.44 76.08C330.853 74 334 71.28 336.88 67.92C339.813 64.5067 342.507 60.7467 344.96 56.64C343.093 56.9067 341.28 57.12 339.52 57.28C337.76 57.3867 336.08 57.4667 334.48 57.52C332.933 57.5733 331.92 57.3867 331.44 56.96C330.96 56.5333 330.72 55.8667 330.72 54.96C330.667 54.16 330.987 53.44 331.68 52.8C332.427 52.16 333.2 51.8133 334 51.76C336.4 51.5467 338.853 51.28 341.36 50.96C343.867 50.64 346.347 50.2667 348.8 49.84C350.08 47.3867 351.307 44.9067 352.48 42.4C353.653 39.8933 354.72 37.4933 355.68 35.2C356.8 31.7333 357.973 28.5067 359.2 25.52C360.427 22.48 361.653 20.0267 362.88 18.16C364.107 16.24 365.253 15.28 366.32 15.28C368.133 15.28 369.04 16.1867 369.04 18C369.04 18.3733 368.8 19.4133 368.32 21.12C367.84 22.8267 367.173 25.04 366.32 27.76C365.52 30.48 364.587 33.5733 363.52 37.04C362.453 40.4533 361.36 44.0533 360.24 47.84C365.04 46.88 369.413 45.9467 373.36 45.04C377.36 44.08 380.64 43.3067 383.2 42.72C385.76 42.08 387.28 41.76 387.76 41.76C388.453 41.76 389.013 42.1067 389.44 42.8C389.867 43.44 390.08 44.0533 390.08 44.64C390.08 45.12 389.2 45.76 387.44 46.56C385.733 47.36 383.36 48.24 380.32 49.2C377.333 50.1067 373.92 51.04 370.08 52C366.293 52.9067 362.347 53.76 358.24 54.56C356.907 59.0933 355.627 63.5733 354.4 68C353.173 72.4267 352.133 76.48 351.28 80.16C350.8 82.5067 349.627 83.68 347.76 83.68C346.8 83.68 346.08 83.44 345.6 82.96C345.173 82.48 344.96 81.6533 344.96 80.48C344.96 80.32 345.093 79.52 345.36 78.08C345.68 76.5867 346.08 74.7467 346.56 72.56C347.04 70.32 347.547 68 348.08 65.6C348.613 63.1467 349.12 60.88 349.6 58.8C346.773 63.8133 343.653 68.3733 340.24 72.48C336.827 76.5867 333.12 79.8667 329.12 82.32C325.173 84.7733 320.987 86 316.56 86ZM317.52 30.72C316.24 30.72 315.173 30.32 314.32 29.52C313.52 28.72 313.12 27.7333 313.12 26.56C313.12 25.12 313.627 23.92 314.64 22.96C315.707 21.9467 316.933 21.44 318.32 21.44C319.867 21.44 321.04 21.8933 321.84 22.8C322.64 23.6533 323.04 24.7733 323.04 26.16C323.04 27.28 322.507 28.32 321.44 29.28C320.373 30.24 319.067 30.72 317.52 30.72Z" fill="#6FFFE9"/>
</svg>
