<svg width="353" height="110" viewBox="0 0 353 110" fill="none" xmlns="http://www.w3.org/2000/svg">
<path d="M213.809 68.0542C212.641 64.7206 209.917 63.0313 207.287 61.3977C204.999 59.9752 202.838 58.6312 201.425 56.218C197.529 49.5335 195.39 45.5 189.008 45.5C182.626 45.5 180.48 49.5348 176.575 56.2166C175.161 58.6352 172.989 59.9819 170.698 61.407C168.069 63.0419 165.35 64.7273 164.177 68.0542C163.721 69.2539 163.491 70.5279 163.5 71.8115C163.5 77.2223 167.81 81.625 172.584 81.625C177.359 81.625 183.649 79.2171 189.021 79.2171C194.394 79.2171 200.596 81.625 205.43 81.625C210.265 81.625 214.5 77.2223 214.5 71.8115C214.504 70.5272 214.27 69.2533 213.809 68.0542Z" fill="#407BFF"/>
<path d="M164.562 58.25C168.67 58.25 172 53.9687 172 48.6875C172 43.4063 168.67 39.125 164.562 39.125C160.455 39.125 157.125 43.4063 157.125 48.6875C157.125 53.9687 160.455 58.25 164.562 58.25Z" fill="#407BFF"/>
<path d="M179.438 45.5C183.545 45.5 186.875 41.2187 186.875 35.9375C186.875 30.6563 183.545 26.375 179.438 26.375C175.33 26.375 172 30.6563 172 35.9375C172 41.2187 175.33 45.5 179.438 45.5Z" fill="#407BFF"/>
<path d="M198.562 45.5C202.67 45.5 206 41.2187 206 35.9375C206 30.6563 202.67 26.375 198.562 26.375C194.455 26.375 191.125 30.6563 191.125 35.9375C191.125 41.2187 194.455 45.5 198.562 45.5Z" fill="#407BFF"/>
<path d="M213.438 58.25C217.545 58.25 220.875 53.9687 220.875 48.6875C220.875 43.4063 217.545 39.125 213.438 39.125C209.33 39.125 206 43.4063 206 48.6875C206 53.9687 209.33 58.25 213.438 58.25Z" fill="#407BFF"/>
<path d="M36.4668 42.72C36.8668 39.6 36.9868 37.92 36.8268 37.68C36.4268 37.84 35.9468 38.28 35.3868 39L31.4268 43.44C27.2668 48.64 25.1868 51.72 25.1868 52.68C25.1868 52.84 24.9068 53.48 24.3468 54.6L24.4668 56.52L24.2268 61.68V63C24.2268 66.44 24.3468 68.92 24.5868 70.44C24.6668 70.2 25.3468 69.68 26.6268 68.88L28.6668 66.12C30.7468 63.56 32.0668 61.72 32.6268 60.6C34.3868 55.24 35.2668 52.2 35.2668 51.48C35.2668 50.36 35.5868 48.76 36.2268 46.68C36.2268 45.96 36.3068 45.12 36.4668 44.16V42.72ZM10.7868 40.8L11.2668 35.28C11.5068 34.64 11.5468 33.8 11.3868 32.76L12.2268 27.84C12.2268 27.12 12.1868 26.36 12.1068 25.56C12.0268 24.68 12.0668 24.08 12.2268 23.76C12.5468 23.12 13.3868 22.56 14.7468 22.08H14.2668C15.0668 21.6 16.1868 21.56 17.6268 21.96C19.0668 22.36 20.2668 22.72 21.2268 23.04C21.7868 23.76 22.5068 24.56 23.3868 25.44L23.5068 29.28C23.5068 31.28 23.6268 33.36 23.8668 35.52C23.7868 36.4 23.7868 36.96 23.8668 37.2L25.9068 35.04C25.9868 34.88 26.8668 34 28.5468 32.4C30.3068 30.8 31.4268 29.8 31.9068 29.4C31.9068 29 32.3868 28.68 33.3468 28.44C35.4268 27.96 37.1868 27.96 38.6268 28.44C40.0668 28.84 40.8668 29.04 41.0268 29.04L45.4668 30.96C45.4668 31.28 45.8668 31.56 46.6668 31.8L47.7468 32.4C48.1468 32.4 48.6668 32.68 49.3068 33.24C50.2668 33.4 50.6268 34.08 50.3868 35.28C50.3868 35.6 50.5068 35.92 50.7468 36.24V39.12C50.7468 40.4 50.3468 42.68 49.5468 45.96C48.8268 49.16 48.3468 51.04 48.1068 51.6C47.9468 52.16 47.7068 52.88 47.3868 53.76C47.1468 54.64 46.8668 55.48 46.5468 56.28C46.1468 57.64 45.3468 59.52 44.1468 61.92C42.9468 64.24 41.7468 66.08 40.5468 67.44C37.7468 71.36 34.6268 74.48 31.1868 76.8C27.4268 78.24 25.0668 79.08 24.1068 79.32C23.8668 79.32 23.8668 80.76 24.1068 83.64V92.28L24.4668 97.56L24.5868 102.96C24.7468 105.6 24.6668 107.08 24.3468 107.4L22.9068 108.6C21.8668 109 20.9468 109.04 20.1468 108.72C18.5468 108.24 17.5868 107.88 17.2668 107.64C16.9468 107.64 16.4268 107.32 15.7068 106.68L14.3868 106.2C13.2668 106.36 12.5868 106.08 12.3468 105.36C11.5468 104.72 11.1468 104.16 11.1468 103.68L9.34677 101.04C8.86677 99.84 8.62677 98.72 8.62677 97.68C8.14677 95.92 7.98677 94.56 8.14677 93.6L7.90677 89.04V82.68C7.90677 80.52 7.82677 79.12 7.66677 78.48C7.50677 78 7.58677 73.76 7.90677 65.76C8.14677 64.16 8.26677 63.16 8.26677 62.76L10.0668 48L10.4268 43.92V42.96C10.6668 42 10.7868 41.28 10.7868 40.8ZM83.3724 39.6C83.6924 38.4 83.6524 36.88 83.2524 35.04C82.6924 34.56 81.9324 34.32 80.9724 34.32C79.7724 34.32 78.6924 35.44 77.7324 37.68C76.4524 39.6 75.4924 41.72 74.8524 44.04H74.7324C73.8524 47.4 73.4124 49.2 73.4124 49.44C74.6924 49.76 75.7324 49.92 76.5324 49.92C77.3324 49.84 78.2524 49.4 79.2924 48.6C81.1324 46.84 82.4924 43.84 83.3724 39.6ZM83.0124 56.88L78.5724 57.24C76.0924 57.24 74.1324 57 72.6924 56.52L73.0524 58.8C73.2924 65.44 75.1324 69.8 78.5724 71.88C79.5324 72.28 80.3324 72.48 80.9724 72.48C81.6124 72.48 82.4524 72.16 83.4924 71.52C83.8124 71.2 84.0924 70.76 84.3324 70.2C84.4124 69.48 84.8124 69.16 85.5324 69.24C88.8124 65.08 91.2924 63.44 92.9724 64.32C94.6524 65.44 95.4924 66.32 95.4924 66.96C95.4924 67.28 95.2924 67.64 94.8924 68.04V68.76C94.8924 69.56 94.3724 71 93.3324 73.08C92.3724 75.16 91.3324 76.92 90.2124 78.36C89.6524 79.56 88.9324 80.4 88.0524 80.88C85.4924 82.48 82.7724 83.12 79.8924 82.8C79.2524 82.72 78.8124 82.56 78.5724 82.32C77.9324 82.16 77.4524 82.12 77.1324 82.2L76.1724 82.08C75.4524 82.08 74.8524 81.92 74.3724 81.6C73.5724 81.12 73.0124 80.88 72.6924 80.88C70.6124 80.08 69.3324 79.48 68.8524 79.08C68.4524 78.68 68.0924 78.4 67.7724 78.24C67.4524 78.08 66.6924 77.24 65.4924 75.72C64.4524 74.84 63.8524 74.28 63.6924 74.04C63.2124 73.32 62.7724 72.8 62.3724 72.48C62.0524 72.16 61.8524 71.44 61.7724 70.32C61.4524 69.92 61.2924 69.4 61.2924 68.76L60.8124 67.8C60.8124 67.24 60.5724 66.8 60.0924 66.48C59.6124 66 59.3724 65.4 59.3724 64.68V63.72C59.0524 63.56 58.9724 63.08 59.1324 62.28V59.16L59.0124 58.08V57.24C58.9324 56.92 59.0124 56.24 59.2524 55.2L59.1324 54.12C59.2124 54.04 59.3324 53.4 59.4924 52.2C59.8124 50.52 60.1724 49.48 60.5724 49.08V48C60.6524 47.76 60.6924 47.44 60.6924 47.04C60.6924 46.64 60.7724 46.2 60.9324 45.72C61.1724 45.24 61.8124 43.44 62.8524 40.32L64.7724 36.12C65.3324 34.92 66.2124 33.6 67.4124 32.16C67.4924 31.76 67.8124 31.04 68.3724 30L69.9324 28.56C70.4124 27.84 71.1324 27.32 72.0924 27C73.2124 26.44 74.0524 26.16 74.6124 26.16L77.9724 25.68C78.3724 25.76 78.6524 25.8 78.8124 25.8H80.3724C82.1324 25.96 83.5724 26.32 84.6924 26.88C87.0924 27.6 88.8524 28.52 89.9724 29.64C92.4524 32.44 93.6924 35.12 93.6924 37.68C93.6924 40.24 93.2924 42.44 92.4924 44.28C90.4924 48.84 89.0524 51.72 88.1724 52.92C86.7324 55.56 85.0124 56.88 83.0124 56.88ZM126.238 5.88C126.078 7.88 125.998 9.36 125.998 10.32C125.998 11.2 125.958 12 125.878 12.72V15.84L125.758 16.68V19.2C125.758 19.92 125.718 20.64 125.638 21.36L129.838 20.52C130.158 20.52 131.318 20.32 133.318 19.92C135.318 19.52 137.118 19.36 138.718 19.44C140.398 19.44 141.518 19.76 142.078 20.4C142.718 21.04 143.038 21.96 143.038 23.16C143.198 24.12 142.918 25.04 142.198 25.92L141.718 26.64C141.078 27.68 140.158 28.36 138.958 28.68L134.758 29.28L129.358 30.6L126.118 31.8C126.198 33.8 126.318 36 126.478 38.4C126.718 40.8 126.838 42.48 126.838 43.44L127.198 47.88C128.238 54.92 129.598 62.12 131.278 69.48C131.758 70.2 132.278 71.84 132.838 74.4L133.798 76.92C134.118 79.64 132.438 81 128.758 81C128.118 81 126.518 80.84 123.958 80.52C123.238 80.44 122.198 79.72 120.838 78.36C120.838 78.2 120.398 77.68 119.518 76.8L117.238 71.28C117.078 71.04 116.878 70.28 116.638 69C115.758 68.12 115.038 66.12 114.478 63C114.478 62.84 114.398 62.44 114.238 61.8V60.12C113.678 59.56 113.278 58 113.038 55.44C112.798 52.88 112.518 50.48 112.198 48.24C112.198 45.12 111.958 42.12 111.478 39.24L111.238 36.6V35.52C111.318 34.72 111.318 34.32 111.238 34.32H109.798C108.598 34.48 107.598 34.48 106.798 34.32C103.278 34.32 100.838 33.32 99.4783 31.32C98.5183 29.16 98.4783 27.76 99.3583 27.12C100.238 26.48 102.398 25.84 105.838 25.2C107.358 25.2 109.318 24.68 111.718 23.64C111.718 21.64 111.838 20.52 112.078 20.28C112.318 18.44 112.558 17.28 112.798 16.8C113.118 16.24 113.318 15.68 113.398 15.12C113.478 13.2 114.158 10.36 115.438 6.6C115.918 4.76 116.358 3.52 116.758 2.87999C117.798 1.35999 119.958 0.879996 123.238 1.44C124.598 1.68 125.598 2.2 126.238 3C126.478 2.92 126.478 3.88 126.238 5.88Z" fill="#264558"/>
<path d="M246.42 28.44H246.66C247.7 28.12 249.38 28.24 251.7 28.8C252.5 29.04 252.98 31.32 253.14 35.64C253.46 38.92 253.62 41.2 253.62 42.48C253.62 43.68 253.66 44.4 253.74 44.64V52.68L254.34 52.8C254.34 52.72 254.42 52.24 254.58 51.36C254.98 49.12 255.42 47.4 255.9 46.2C256.22 45.88 256.38 45.48 256.38 45C256.46 44.52 256.7 44 257.1 43.44C257.58 41.2 258.78 38.28 260.7 34.68C261.34 33.16 261.94 32.04 262.5 31.32C263.14 30.52 264.06 30.24 265.26 30.48C266.54 30.72 267.58 31.16 268.38 31.8C269.02 31.88 269.78 32 270.66 32.16L274.14 32.88C274.46 32.96 274.9 33.24 275.46 33.72C276.02 34.12 276.26 34.64 276.18 35.28C276.1 35.92 276.02 37.8 275.94 40.92V42.84L275.46 47.52C275.46 48.8 275.54 49.56 275.7 49.8L276.18 50.16L277.14 44.64C277.14 44.08 277.38 43.56 277.86 43.08L279.3 39.6C279.3 39.36 279.54 38.84 280.02 38.04C280.18 37.48 280.54 36.68 281.1 35.64C281.74 34.6 282.54 33.6 283.5 32.64C283.5 32 284.22 31.56 285.66 31.32C286.78 30.12 288.62 30.08 291.18 31.2C291.66 31.2 292.1 31.28 292.5 31.44C292.5 31.6 292.78 31.72 293.34 31.8C293.98 31.88 294.74 32.4 295.62 33.36V34.68C295.62 35.48 295.66 36.08 295.74 36.48C295.66 37.04 295.7 37.76 295.86 38.64V40.08C295.94 40.72 296.14 42.72 296.46 46.08V47.4C296.7 47.88 296.78 48.4 296.7 48.96C296.7 49.44 296.7 49.96 296.7 50.52C296.94 50.76 297.14 51.44 297.3 52.56C297.46 53.6 297.38 54.64 297.06 55.68L297.3 56.76V60.12C297.7 60.44 297.9 60.92 297.9 61.56L298.26 63.6C298.26 65.04 298.46 66.48 298.86 67.92V69.24L299.46 72.36V73.08L299.34 74.28C299.34 75.16 298.86 75.8 297.9 76.2C297.74 76.28 297.5 76.4 297.18 76.56C296.94 76.72 296.5 76.8 295.86 76.8L293.34 75.96L292.14 75.12C291.5 75.28 290.66 75 289.62 74.28C289.62 73.56 289.34 72.92 288.78 72.36C287.82 72.04 287.46 71.4 287.7 70.44C287.78 70.36 287.58 69.92 287.1 69.12C287.26 68.96 287.14 68.08 286.74 66.48C286.74 65.76 286.66 65.08 286.5 64.44C286.42 63.72 286.34 63 286.26 62.28C286.26 61.56 286.14 60.92 285.9 60.36C285.98 60.36 286.02 60.08 286.02 59.52C286.02 58.96 285.94 58.44 285.78 57.96V55.2L285.18 50.4L283.38 55.92C282.18 59.04 281.58 60.72 281.58 60.96L277.74 72.96C277.5 73.44 277.02 74 276.3 74.64C275.66 75.2 275.1 75.48 274.62 75.48C274.46 75.24 274.02 75.12 273.3 75.12C272.66 75.12 271.86 75.32 270.9 75.72C268.18 76.04 266.62 75.2 266.22 73.2L265.98 70.44L266.1 67.68C265.94 67.44 265.86 66.88 265.86 66L265.74 64.32V59.16L265.5 53.04V47.16C263.18 53.48 261.74 57.6 261.18 59.52L256.74 73.8C255.86 76.12 254.26 77.36 251.94 77.52L250.62 77.76C248.86 78.16 247.7 77.88 247.14 76.92L245.94 74.88C245.62 73.12 245.3 72.12 244.98 71.88C244.82 70.76 244.42 69.6 243.78 68.4L243.18 65.52C243.18 65.28 243.1 64.92 242.94 64.44V62.28C242.7 61.64 242.5 60.36 242.34 58.44C242.18 56.44 242.14 54.84 242.22 53.64C241.9 52.68 241.82 51.48 241.98 50.04V47.88C241.58 46.04 241.38 43.24 241.38 39.48V37.8C241.78 35.4 241.98 33.8 241.98 33C241.98 32.12 242.18 31.48 242.58 31.08C242.98 30.6 244.26 29.72 246.42 28.44ZM334.887 39.6C335.207 38.4 335.167 36.88 334.767 35.04C334.207 34.56 333.447 34.32 332.487 34.32C331.287 34.32 330.207 35.44 329.247 37.68C327.967 39.6 327.007 41.72 326.367 44.04H326.247C325.367 47.4 324.927 49.2 324.927 49.44C326.207 49.76 327.247 49.92 328.047 49.92C328.847 49.84 329.767 49.4 330.807 48.6C332.647 46.84 334.007 43.84 334.887 39.6ZM334.527 56.88L330.087 57.24C327.607 57.24 325.647 57 324.207 56.52L324.567 58.8C324.807 65.44 326.647 69.8 330.087 71.88C331.047 72.28 331.847 72.48 332.487 72.48C333.127 72.48 333.967 72.16 335.007 71.52C335.327 71.2 335.607 70.76 335.847 70.2C335.927 69.48 336.327 69.16 337.047 69.24C340.327 65.08 342.807 63.44 344.487 64.32C346.167 65.44 347.007 66.32 347.007 66.96C347.007 67.28 346.807 67.64 346.407 68.04V68.76C346.407 69.56 345.887 71 344.847 73.08C343.887 75.16 342.847 76.92 341.727 78.36C341.167 79.56 340.447 80.4 339.567 80.88C337.007 82.48 334.287 83.12 331.407 82.8C330.767 82.72 330.327 82.56 330.087 82.32C329.447 82.16 328.967 82.12 328.647 82.2L327.687 82.08C326.967 82.08 326.367 81.92 325.887 81.6C325.087 81.12 324.527 80.88 324.207 80.88C322.127 80.08 320.847 79.48 320.367 79.08C319.967 78.68 319.607 78.4 319.287 78.24C318.967 78.08 318.207 77.24 317.007 75.72C315.967 74.84 315.367 74.28 315.207 74.04C314.727 73.32 314.287 72.8 313.887 72.48C313.567 72.16 313.367 71.44 313.287 70.32C312.967 69.92 312.807 69.4 312.807 68.76L312.327 67.8C312.327 67.24 312.087 66.8 311.607 66.48C311.127 66 310.887 65.4 310.887 64.68V63.72C310.567 63.56 310.487 63.08 310.647 62.28V59.16L310.527 58.08V57.24C310.447 56.92 310.527 56.24 310.767 55.2L310.647 54.12C310.727 54.04 310.847 53.4 311.007 52.2C311.327 50.52 311.687 49.48 312.087 49.08V48C312.167 47.76 312.207 47.44 312.207 47.04C312.207 46.64 312.287 46.2 312.447 45.72C312.687 45.24 313.327 43.44 314.367 40.32L316.287 36.12C316.847 34.92 317.727 33.6 318.927 32.16C319.007 31.76 319.327 31.04 319.887 30L321.447 28.56C321.927 27.84 322.647 27.32 323.607 27C324.727 26.44 325.567 26.16 326.127 26.16L329.487 25.68C329.887 25.76 330.167 25.8 330.327 25.8H331.887C333.647 25.96 335.087 26.32 336.207 26.88C338.607 27.6 340.367 28.52 341.487 29.64C343.967 32.44 345.207 35.12 345.207 37.68C345.207 40.24 344.807 42.44 344.007 44.28C342.007 48.84 340.567 51.72 339.687 52.92C338.247 55.56 336.527 56.88 334.527 56.88Z" fill="#264558"/>
</svg>
